# xmcd
# Copyright (C) 1995-1998 Ti Kan
#
# Track frame offsets:
#       150
#       23121
#       42215
#       55905
#       72187
#       95424
#       113450
#       129607
#       142482
#       157313
#       171276
#       190280
#       204352
#       218197
#       230005
#       247449
#       262548
#       271697
#       287186
#       302730
#       315331
#       327916
#       343660
#
# Disc length: 4746 seconds
#
# Revision: 0
# Processed by: cddbd v1.5.2PL0 Copyright (c) Steve Scherf et al.
# Submitted via: CD-Transfer v1.0
#
DISCID=5e128817
DTITLE=Various Ska - 
DYEAR=1900
DGENRE=
TTITLE0=Coffee
TTITLE1=Maude
TTITLE2=Don Quixotte
TTITLE3=Othello
TTITLE4=Rudy, Do You Know
TTITLE5=Same Old Story
TTITLE6=Inspector Gadget
TTITLE7=Walkin' Shangbootie
TTITLE8=Doomsday
TTITLE9=Rodent Revolt
TTITLE10=Too Stupid
TTITLE11=Stuff
TTITLE12=Night Before
TTITLE13=Mission Abborted
TTITLE14=Miami Skaline
TTITLE15=Swallow Blood
TTITLE16=After The Lights Go Down Low
TTITLE17=William Shatner
TTITLE18=Blind Justice
TTITLE19=Dub 56
TTITLE20=Little Hidden Secrets
TTITLE21=My Girl Become A Dude
TTITLE22=Liquor Store
EXTD=
EXTT0=
EXTT1=
EXTT2=
EXTT3=
EXTT4=
EXTT5=
EXTT6=
EXTT7=
EXTT8=
EXTT9=
EXTT10=
EXTT11=
EXTT12=
EXTT13=
EXTT14=
EXTT15=
EXTT16=
EXTT17=
EXTT18=
EXTT19=
EXTT20=
EXTT21=
EXTT22=
PLAYORDER=
